<?xml version="1.0" encoding="UTF-8" standalone="yes"?><svg xmlns="http://www.w3.org/2000/svg" xmlns:xlink="http://www.w3.org/1999/xlink" height="518px" style="width:322px;height:518px;" version="1.1" viewBox="0 0 322 518" width="322px"><defs><filter height="300%" id="f1" width="300%" x="-1" y="-1"><feGaussianBlur result="blurOut" stdDeviation="2.0"/><feColorMatrix in="blurOut" result="blurOut2" type="matrix" values="0 0 0 0 0 0 0 0 0 0 0 0 0 0 0 0 0 0 .4 0"/><feOffset dx="4.0" dy="4.0" in="blurOut2" result="blurOut3"/><feBlend in="SourceGraphic" in2="blurOut3" mode="normal"/></filter></defs><g><polygon fill="#FFFFFF" filter="url(#f1)" points="22,24,68,24,75,47.6094,315,47.6094,315,511,22,511,22,24" style="stroke: #000000; stroke-width: 2.0;"/><line style="stroke: #000000; stroke-width: 2.0;" x1="22" x2="75" y1="47.6094" y2="47.6094"/><text fill="#000000" font-family="sans-serif" font-size="14" font-weight="bold" lengthAdjust="spacingAndGlyphs" textLength="40" x="26" y="40.5332">Audio</text><rect fill="#FEFECE" filter="url(#f1)" height="153.0391" style="stroke: #A80036; stroke-width: 1.5;" width="117" x="46.5" y="60"/><ellipse cx="61.5" cy="80.0938" fill="#ADD1B2" rx="11" ry="11" style="stroke: #A80036; stroke-width: 1.0;"/><path d="M64.2656,75.9688 Q64.4219,75.75 64.6094,75.6406 Q64.7969,75.5313 65.0156,75.5313 Q65.3906,75.5313 65.625,75.7891 Q65.8594,76.0469 65.8594,76.6563 L65.8594,78.1094 Q65.8594,78.7188 65.625,78.9844 Q65.3906,79.25 65.0156,79.25 Q64.6719,79.25 64.4688,79.0469 Q64.2656,78.8594 64.1563,78.3438 Q64.1094,77.9844 63.9219,77.7969 Q63.5938,77.4219 62.9844,77.2031 Q62.375,76.9844 61.75,76.9844 Q60.9844,76.9844 60.3516,77.3125 Q59.7188,77.6406 59.2266,78.3906 Q58.7344,79.1406 58.7344,80.1719 L58.7344,81.2656 Q58.7344,82.5 59.625,83.3203 Q60.5156,84.1406 62.1094,84.1406 Q63.0469,84.1406 63.7031,83.8906 Q64.0938,83.7344 64.5156,83.2969 Q64.7813,83.0313 64.9297,82.9531 Q65.0781,82.875 65.2813,82.875 Q65.6094,82.875 65.8672,83.1328 Q66.125,83.3906 66.125,83.7344 Q66.125,84.0781 65.7813,84.4844 Q65.2813,85.0625 64.4844,85.3906 Q63.4063,85.8438 62.1094,85.8438 Q60.5938,85.8438 59.3906,85.2188 Q58.4063,84.7188 57.7188,83.6484 Q57.0313,82.5781 57.0313,81.2969 L57.0313,80.1406 Q57.0313,78.8125 57.6484,77.6641 Q58.2656,76.5156 59.3594,75.8984 Q60.4531,75.2813 61.6875,75.2813 Q62.4219,75.2813 63.0703,75.4453 Q63.7188,75.6094 64.2656,75.9688 Z "/><text fill="#000000" font-family="sans-serif" font-size="12" font-style="italic" lengthAdjust="spacingAndGlyphs" textLength="42" x="97" y="77.457">«class»</text><text fill="#000000" font-family="sans-serif" font-size="12" lengthAdjust="spacingAndGlyphs" textLength="85" x="75.5" y="92.5508">AudioController</text><line style="stroke: #A80036; stroke-width: 1.5;" x1="47.5" x2="162.5" y1="100.1875" y2="100.1875"/><rect fill="none" height="6" style="stroke: #C82930; stroke-width: 1.0;" width="6" x="54.5" y="109.6055"/><text fill="#000000" font-family="sans-serif" font-size="11" lengthAdjust="spacingAndGlyphs" textLength="20" x="66.5" y="115.6064">lang</text><rect fill="none" height="6" style="stroke: #C82930; stroke-width: 1.0;" width="6" x="54.5" y="123.4414"/><text fill="#000000" font-family="sans-serif" font-size="11" lengthAdjust="spacingAndGlyphs" textLength="40" x="66.5" y="129.4424">filename</text><rect fill="none" height="6" style="stroke: #C82930; stroke-width: 1.0;" width="6" x="54.5" y="137.2773"/><text fill="#000000" font-family="sans-serif" font-size="11" lengthAdjust="spacingAndGlyphs" textLength="41" x="66.5" y="143.2783">autoplay</text><rect fill="none" height="6" style="stroke: #C82930; stroke-width: 1.0;" width="6" x="54.5" y="151.1133"/><text fill="#000000" font-family="sans-serif" font-size="11" lengthAdjust="spacingAndGlyphs" textLength="20" x="66.5" y="157.1143">loop</text><line style="stroke: #A80036; stroke-width: 1.0;" x1="47.5" x2="162.5" y1="163.5313" y2="163.5313"/><ellipse cx="57.5" cy="175.9492" fill="#84BE84" rx="3" ry="3" style="stroke: #038048; stroke-width: 1.0;"/><text fill="#000000" font-family="sans-serif" font-size="11" lengthAdjust="spacingAndGlyphs" textLength="66" x="66.5" y="178.9502">__construct()</text><ellipse cx="57.5" cy="189.7852" fill="#84BE84" rx="3" ry="3" style="stroke: #038048; stroke-width: 1.0;"/><text fill="#000000" font-family="sans-serif" font-size="11" lengthAdjust="spacingAndGlyphs" textLength="72" x="66.5" y="192.7861">defaultAction()</text><rect fill="#F24D5C" height="6" style="stroke: #C82930; stroke-width: 1.0;" width="6" x="54.5" y="200.6211"/><text fill="#000000" font-family="sans-serif" font-size="11" lengthAdjust="spacingAndGlyphs" textLength="72" x="66.5" y="206.6221">prepareView()</text><rect fill="#FEFECE" filter="url(#f1)" height="97.6953" style="stroke: #A80036; stroke-width: 1.5;" width="92" x="199" y="87.5"/><ellipse cx="214.9" cy="107.5938" fill="#ADD1B2" rx="11" ry="11" style="stroke: #A80036; stroke-width: 1.0;"/><path d="M217.6656,103.4688 Q217.8219,103.25 218.0094,103.1406 Q218.1969,103.0313 218.4156,103.0313 Q218.7906,103.0313 219.025,103.2891 Q219.2594,103.5469 219.2594,104.1563 L219.2594,105.6094 Q219.2594,106.2188 219.025,106.4844 Q218.7906,106.75 218.4156,106.75 Q218.0719,106.75 217.8688,106.5469 Q217.6656,106.3594 217.5563,105.8438 Q217.5094,105.4844 217.3219,105.2969 Q216.9938,104.9219 216.3844,104.7031 Q215.775,104.4844 215.15,104.4844 Q214.3844,104.4844 213.7516,104.8125 Q213.1188,105.1406 212.6266,105.8906 Q212.1344,106.6406 212.1344,107.6719 L212.1344,108.7656 Q212.1344,110 213.025,110.8203 Q213.9156,111.6406 215.5094,111.6406 Q216.4469,111.6406 217.1031,111.3906 Q217.4938,111.2344 217.9156,110.7969 Q218.1813,110.5313 218.3297,110.4531 Q218.4781,110.375 218.6813,110.375 Q219.0094,110.375 219.2672,110.6328 Q219.525,110.8906 219.525,111.2344 Q219.525,111.5781 219.1813,111.9844 Q218.6813,112.5625 217.8844,112.8906 Q216.8063,113.3438 215.5094,113.3438 Q213.9938,113.3438 212.7906,112.7188 Q211.8063,112.2188 211.1188,111.1484 Q210.4313,110.0781 210.4313,108.7969 L210.4313,107.6406 Q210.4313,106.3125 211.0484,105.1641 Q211.6656,104.0156 212.7594,103.3984 Q213.8531,102.7813 215.0875,102.7813 Q215.8219,102.7813 216.4703,102.9453 Q217.1188,103.1094 217.6656,103.4688 Z "/><text fill="#000000" font-family="sans-serif" font-size="12" font-style="italic" lengthAdjust="spacingAndGlyphs" textLength="42" x="237.1" y="104.957">«class»</text><text fill="#000000" font-family="sans-serif" font-size="12" lengthAdjust="spacingAndGlyphs" textLength="58" x="229.1" y="120.0508">HtmlString</text><line style="stroke: #A80036; stroke-width: 1.5;" x1="200" x2="290" y1="127.6875" y2="127.6875"/><rect fill="none" height="6" style="stroke: #C82930; stroke-width: 1.0;" width="6" x="207" y="137.1055"/><text fill="#000000" font-family="sans-serif" font-size="11" lengthAdjust="spacingAndGlyphs" textLength="26" x="219" y="143.1064">value</text><line style="stroke: #A80036; stroke-width: 1.0;" x1="200" x2="290" y1="149.5234" y2="149.5234"/><ellipse cx="210" cy="161.9414" fill="#84BE84" rx="3" ry="3" style="stroke: #038048; stroke-width: 1.0;"/><text fill="#000000" font-family="sans-serif" font-size="11" lengthAdjust="spacingAndGlyphs" textLength="66" x="219" y="164.9424">__construct()</text><ellipse cx="210" cy="175.7773" fill="#84BE84" rx="3" ry="3" style="stroke: #038048; stroke-width: 1.0;"/><text fill="#000000" font-family="sans-serif" font-size="11" lengthAdjust="spacingAndGlyphs" textLength="57" x="219" y="178.7783">__toString()</text><rect fill="#FEFECE" filter="url(#f1)" height="97.6953" style="stroke: #A80036; stroke-width: 1.5;" width="134" x="38" y="335"/><ellipse cx="81.8" cy="355.0938" fill="#ADD1B2" rx="11" ry="11" style="stroke: #A80036; stroke-width: 1.0;"/><path d="M84.5656,350.9688 Q84.7219,350.75 84.9094,350.6406 Q85.0969,350.5313 85.3156,350.5313 Q85.6906,350.5313 85.925,350.7891 Q86.1594,351.0469 86.1594,351.6563 L86.1594,353.1094 Q86.1594,353.7188 85.925,353.9844 Q85.6906,354.25 85.3156,354.25 Q84.9719,354.25 84.7688,354.0469 Q84.5656,353.8594 84.4563,353.3438 Q84.4094,352.9844 84.2219,352.7969 Q83.8938,352.4219 83.2844,352.2031 Q82.675,351.9844 82.05,351.9844 Q81.2844,351.9844 80.6516,352.3125 Q80.0188,352.6406 79.5266,353.3906 Q79.0344,354.1406 79.0344,355.1719 L79.0344,356.2656 Q79.0344,357.5 79.925,358.3203 Q80.8156,359.1406 82.4094,359.1406 Q83.3469,359.1406 84.0031,358.8906 Q84.3938,358.7344 84.8156,358.2969 Q85.0813,358.0313 85.2297,357.9531 Q85.3781,357.875 85.5813,357.875 Q85.9094,357.875 86.1672,358.1328 Q86.425,358.3906 86.425,358.7344 Q86.425,359.0781 86.0813,359.4844 Q85.5813,360.0625 84.7844,360.3906 Q83.7063,360.8438 82.4094,360.8438 Q80.8938,360.8438 79.6906,360.2188 Q78.7063,359.7188 78.0188,358.6484 Q77.3313,357.5781 77.3313,356.2969 L77.3313,355.1406 Q77.3313,353.8125 77.9484,352.6641 Q78.5656,351.5156 79.6594,350.8984 Q80.7531,350.2813 81.9875,350.2813 Q82.7219,350.2813 83.3703,350.4453 Q84.0188,350.6094 84.5656,350.9688 Z "/><text fill="#000000" font-family="sans-serif" font-size="12" font-style="italic" lengthAdjust="spacingAndGlyphs" textLength="42" x="100.2" y="352.457">«class»</text><text fill="#000000" font-family="sans-serif" font-size="12" lengthAdjust="spacingAndGlyphs" textLength="35" x="103.7" y="367.5508">Plugin</text><line style="stroke: #A80036; stroke-width: 1.5;" x1="39" x2="171" y1="375.1875" y2="375.1875"/><ellipse cx="49" cy="387.6055" fill="none" rx="3" ry="3" style="stroke: #038048; stroke-width: 1.0;"/><text fill="#000000" font-family="sans-serif" font-size="11" lengthAdjust="spacingAndGlyphs" textLength="45" x="58" y="390.6064">VERSION</text><line style="stroke: #A80036; stroke-width: 1.0;" x1="39" x2="171" y1="397.0234" y2="397.0234"/><ellipse cx="49" cy="409.4414" fill="#84BE84" rx="3" ry="3" style="stroke: #038048; stroke-width: 1.0;"/><text fill="#000000" font-family="sans-serif" font-size="11" lengthAdjust="spacingAndGlyphs" textLength="24" x="58" y="412.4424">run()</text><rect fill="#F24D5C" height="6" style="stroke: #C82930; stroke-width: 1.0;" width="6" x="46" y="420.2773"/><text fill="#000000" font-family="sans-serif" font-size="11" lengthAdjust="spacingAndGlyphs" textLength="108" x="58" y="426.2783">handleAdministration()</text><rect fill="#FEFECE" filter="url(#f1)" height="222.2188" style="stroke: #A80036; stroke-width: 1.5;" width="92" x="207" y="273"/><ellipse cx="231.9" cy="293.0938" fill="#ADD1B2" rx="11" ry="11" style="stroke: #A80036; stroke-width: 1.0;"/><path d="M234.6656,288.9688 Q234.8219,288.75 235.0094,288.6406 Q235.1969,288.5313 235.4156,288.5313 Q235.7906,288.5313 236.025,288.7891 Q236.2594,289.0469 236.2594,289.6563 L236.2594,291.1094 Q236.2594,291.7188 236.025,291.9844 Q235.7906,292.25 235.4156,292.25 Q235.0719,292.25 234.8688,292.0469 Q234.6656,291.8594 234.5563,291.3438 Q234.5094,290.9844 234.3219,290.7969 Q233.9938,290.4219 233.3844,290.2031 Q232.775,289.9844 232.15,289.9844 Q231.3844,289.9844 230.7516,290.3125 Q230.1188,290.6406 229.6266,291.3906 Q229.1344,292.1406 229.1344,293.1719 L229.1344,294.2656 Q229.1344,295.5 230.025,296.3203 Q230.9156,297.1406 232.5094,297.1406 Q233.4469,297.1406 234.1031,296.8906 Q234.4938,296.7344 234.9156,296.2969 Q235.1813,296.0313 235.3297,295.9531 Q235.4781,295.875 235.6813,295.875 Q236.0094,295.875 236.2672,296.1328 Q236.525,296.3906 236.525,296.7344 Q236.525,297.0781 236.1813,297.4844 Q235.6813,298.0625 234.8844,298.3906 Q233.8063,298.8438 232.5094,298.8438 Q230.9938,298.8438 229.7906,298.2188 Q228.8063,297.7188 228.1188,296.6484 Q227.4313,295.5781 227.4313,294.2969 L227.4313,293.1406 Q227.4313,291.8125 228.0484,290.6641 Q228.6656,289.5156 229.7594,288.8984 Q230.8531,288.2813 232.0875,288.2813 Q232.8219,288.2813 233.4703,288.4453 Q234.1188,288.6094 234.6656,288.9688 Z "/><text fill="#000000" font-family="sans-serif" font-size="12" font-style="italic" lengthAdjust="spacingAndGlyphs" textLength="42" x="246.1" y="290.457">«class»</text><text fill="#000000" font-family="sans-serif" font-size="12" lengthAdjust="spacingAndGlyphs" textLength="26" x="254.1" y="305.5508">View</text><line style="stroke: #A80036; stroke-width: 1.5;" x1="208" x2="298" y1="313.1875" y2="313.1875"/><rect fill="none" height="6" style="stroke: #C82930; stroke-width: 1.0;" width="6" x="215" y="322.6055"/><text fill="#000000" font-family="sans-serif" font-size="11" lengthAdjust="spacingAndGlyphs" textLength="40" x="227" y="328.6064">template</text><rect fill="none" height="6" style="stroke: #C82930; stroke-width: 1.0;" width="6" x="215" y="336.4414"/><text fill="#000000" font-family="sans-serif" font-size="11" lengthAdjust="spacingAndGlyphs" textLength="21" x="227" y="342.4424">data</text><line style="stroke: #A80036; stroke-width: 1.0;" x1="208" x2="298" y1="348.8594" y2="348.8594"/><ellipse cx="218" cy="361.2773" fill="#84BE84" rx="3" ry="3" style="stroke: #038048; stroke-width: 1.0;"/><text fill="#000000" font-family="sans-serif" font-size="11" lengthAdjust="spacingAndGlyphs" textLength="66" x="227" y="364.2783">__construct()</text><ellipse cx="218" cy="375.1133" fill="#84BE84" rx="3" ry="3" style="stroke: #038048; stroke-width: 1.0;"/><text fill="#000000" font-family="sans-serif" font-size="11" lengthAdjust="spacingAndGlyphs" textLength="35" x="227" y="378.1143">__set()</text><ellipse cx="218" cy="388.9492" fill="#84BE84" rx="3" ry="3" style="stroke: #038048; stroke-width: 1.0;"/><text fill="#000000" font-family="sans-serif" font-size="11" lengthAdjust="spacingAndGlyphs" textLength="35" x="227" y="391.9502">__get()</text><ellipse cx="218" cy="402.7852" fill="#84BE84" rx="3" ry="3" style="stroke: #038048; stroke-width: 1.0;"/><text fill="#000000" font-family="sans-serif" font-size="11" lengthAdjust="spacingAndGlyphs" textLength="43" x="227" y="405.7861">__isset()</text><ellipse cx="218" cy="416.6211" fill="#84BE84" rx="3" ry="3" style="stroke: #038048; stroke-width: 1.0;"/><text fill="#000000" font-family="sans-serif" font-size="11" lengthAdjust="spacingAndGlyphs" textLength="36" x="227" y="419.6221">__call()</text><ellipse cx="218" cy="430.457" fill="#84BE84" rx="3" ry="3" style="stroke: #038048; stroke-width: 1.0;"/><text fill="#000000" font-family="sans-serif" font-size="11" lengthAdjust="spacingAndGlyphs" textLength="57" x="227" y="433.458">__toString()</text><polygon fill="#FFFF44" points="218,439.293,222,443.293,218,447.293,214,443.293" style="stroke: #B38D22; stroke-width: 1.0;"/><text fill="#000000" font-family="sans-serif" font-size="11" lengthAdjust="spacingAndGlyphs" textLength="26" x="227" y="447.2939">text()</text><polygon fill="#FFFF44" points="218,453.1289,222,457.1289,218,461.1289,214,457.1289" style="stroke: #B38D22; stroke-width: 1.0;"/><text fill="#000000" font-family="sans-serif" font-size="11" lengthAdjust="spacingAndGlyphs" textLength="34" x="227" y="461.1299">plural()</text><ellipse cx="218" cy="471.9648" fill="#84BE84" rx="3" ry="3" style="stroke: #038048; stroke-width: 1.0;"/><text fill="#000000" font-family="sans-serif" font-size="11" lengthAdjust="spacingAndGlyphs" textLength="40" x="227" y="474.9658">render()</text><polygon fill="#FFFF44" points="218,480.8008,222,484.8008,218,488.8008,214,484.8008" style="stroke: #B38D22; stroke-width: 1.0;"/><text fill="#000000" font-family="sans-serif" font-size="11" lengthAdjust="spacingAndGlyphs" textLength="44" x="227" y="488.8018">escape()</text></g></svg>